<mxfile host="app.diagrams.net" modified="2024-06-05T10:52:09.507Z" agent="Mozilla/5.0 (Macintosh; Intel Mac OS X 10_15_7) AppleWebKit/537.36 (KHTML, like Gecko) Chrome/125.0.0.0 Safari/537.36" version="24.4.14" etag="vZEv_lvpQfQxdz74SpbG" type="github">
  <diagram name="Page-1" id="5wPobnov95fB1uJQNWkJ">
    <mxGraphModel>
      <root>
        <mxCell id="0" />
        <mxCell id="1" parent="0" />
      </root>
    </mxGraphModel>
  </diagram>
</mxfile>
